# xmcd
#
# Track frame offsets:
# 150
# 12034
# 28074
# 43729
# 65418
# 83476
# 96632
# 111415
# 125902
# 140156
# 153833
# 170242
# 184628
# 200255
# 218221
# 233658
#
# Disc length: 3284 seconds
#
#
# Revision: 0
# Processed by: cddbd v1.5.1PL0 Copyright (c) Steve Scherf et al.
# Submitted via: FreeRIP 2.90 
#
DISCID=e50cd210
DTITLE=Banda Tremendoes - A Maquina Quente do Forro
DYEAR=1900
DGENRE=Country
TTITLE0=Bate Forte Coracao
TTITLE1=Primeiro Olhar
TTITLE2=Crioula
TTITLE3=Amor Escondido
TTITLE4=Acabou Amor
TTITLE5=Melo das Gatinhas
TTITLE6=Ligacao Urbana
TTITLE7=Simbora
TTITLE8=Onde Tem Forro
TTITLE9=Patricinha
TTITLE10=Nao Vai Embora
TTITLE11=Amor de Primavera
TTITLE12=Sonho Lindo
TTITLE13=Jeito Manhoso
TTITLE14=Vitrine
TTITLE15=Zoiao
EXTD=
EXTT0=
EXTT1=
EXTT2=
EXTT3=
EXTT4=
EXTT5=
EXTT6=
EXTT7=
EXTT8=
EXTT9=
EXTT10=
EXTT11=
EXTT12=
EXTT13=
EXTT14=
EXTT15=
PLAYORDER=
